G04 #@! TF.GenerationSoftware,KiCad,Pcbnew,5.1.5-52549c5~84~ubuntu18.04.1*
G04 #@! TF.CreationDate,2020-01-15T10:03:58+01:00*
G04 #@! TF.ProjectId,geneva,67656e65-7661-42e6-9b69-6361645f7063,rev?*
G04 #@! TF.SameCoordinates,Original*
G04 #@! TF.FileFunction,Copper,L2,Bot*
G04 #@! TF.FilePolarity,Positive*
%FSLAX46Y46*%
G04 Gerber Fmt 4.6, Leading zero omitted, Abs format (unit mm)*
G04 Created by KiCad (PCBNEW 5.1.5-52549c5~84~ubuntu18.04.1) date 2020-01-15 10:03:58*
%MOMM*%
%LPD*%
G04 APERTURE LIST*
%ADD10C,0.101600*%
%ADD11O,1.070000X1.800000*%
%ADD12R,1.070000X1.800000*%
%ADD13C,5.000000*%
%ADD14C,0.800000*%
%ADD15C,0.250000*%
G04 APERTURE END LIST*
G04 #@! TA.AperFunction,SMDPad,CuDef*
D10*
G36*
X100050543Y-89503164D02*
G01*
X100166593Y-89501322D01*
X100832125Y-89533025D01*
X101494306Y-89606875D01*
X102150470Y-89722574D01*
X102797975Y-89879657D01*
X103434214Y-90077491D01*
X104056624Y-90315280D01*
X104662699Y-90592065D01*
X105250000Y-90906733D01*
X105816161Y-91258017D01*
X106358902Y-91644501D01*
X106876038Y-92064629D01*
X107365486Y-92516711D01*
X107825277Y-92998925D01*
X108253557Y-93509331D01*
X108648604Y-94045871D01*
X109008826Y-94606387D01*
X109332772Y-95188622D01*
X109619139Y-95790229D01*
X109866773Y-96408788D01*
X110074676Y-97041808D01*
X110242013Y-97686739D01*
X110368108Y-98340985D01*
X110452455Y-99001912D01*
X110494714Y-99666857D01*
X110494714Y-100333143D01*
X110452455Y-100998088D01*
X110368108Y-101659015D01*
X110242013Y-102313261D01*
X110074676Y-102958192D01*
X109866773Y-103591212D01*
X109619139Y-104209771D01*
X109332772Y-104811378D01*
X109008826Y-105393613D01*
X108648604Y-105954129D01*
X108253557Y-106490669D01*
X107825277Y-107001075D01*
X107365486Y-107483289D01*
X106876038Y-107935371D01*
X106358902Y-108355499D01*
X105816161Y-108741983D01*
X105250000Y-109093267D01*
X104662699Y-109407935D01*
X104056624Y-109684720D01*
X103434214Y-109922509D01*
X102797975Y-110120343D01*
X102150470Y-110277426D01*
X101494306Y-110393125D01*
X100832125Y-110466975D01*
X100166593Y-110498678D01*
X99500390Y-110488107D01*
X98836199Y-110435304D01*
X98176694Y-110340481D01*
X97524531Y-110204021D01*
X96882336Y-110026474D01*
X96252695Y-109808553D01*
X95638142Y-109551136D01*
X95041154Y-109255260D01*
X94464133Y-108922117D01*
X93909402Y-108553047D01*
X93379197Y-108149538D01*
X92875651Y-107713213D01*
X92400793Y-107245830D01*
X91956533Y-106749270D01*
X91544662Y-106225533D01*
X91166838Y-105676729D01*
X90824582Y-105105066D01*
X90519271Y-104512847D01*
X90252137Y-103902456D01*
X90024253Y-103276351D01*
X89836539Y-102637054D01*
X89689749Y-101987138D01*
X89584474Y-101329221D01*
X89521140Y-100665951D01*
X89500000Y-100000000D01*
X90500000Y-100000000D01*
X90519127Y-100602527D01*
X90576429Y-101202628D01*
X90671677Y-101797887D01*
X90804487Y-102385906D01*
X90974324Y-102964318D01*
X91180505Y-103530793D01*
X91422198Y-104083052D01*
X91698431Y-104618869D01*
X92008091Y-105136088D01*
X92349933Y-105632625D01*
X92722578Y-106106482D01*
X93124527Y-106555751D01*
X93554161Y-106978621D01*
X94009750Y-107373391D01*
X94489459Y-107738472D01*
X94991358Y-108072392D01*
X95513425Y-108373807D01*
X96053557Y-108641504D01*
X96609581Y-108874405D01*
X97179256Y-109071571D01*
X97760290Y-109232210D01*
X98350342Y-109355674D01*
X98947037Y-109441465D01*
X99547972Y-109489240D01*
X100150727Y-109498804D01*
X100752875Y-109470120D01*
X101351991Y-109403304D01*
X101945663Y-109298623D01*
X102531501Y-109156501D01*
X103107146Y-108977508D01*
X103670279Y-108762366D01*
X104218633Y-108511941D01*
X104750000Y-108227241D01*
X105262241Y-107909414D01*
X105753292Y-107559737D01*
X106221177Y-107179621D01*
X106664011Y-106770595D01*
X107080012Y-106334306D01*
X107467504Y-105872510D01*
X107824928Y-105387069D01*
X108150842Y-104879935D01*
X108443937Y-104353152D01*
X108703030Y-103808840D01*
X108927080Y-103249191D01*
X109115183Y-102676459D01*
X109266583Y-102092950D01*
X109380669Y-101501013D01*
X109456983Y-100903032D01*
X109495217Y-100301415D01*
X109495217Y-99698585D01*
X109456983Y-99096968D01*
X109380669Y-98498987D01*
X109266583Y-97907050D01*
X109115183Y-97323541D01*
X108927080Y-96750809D01*
X108703030Y-96191160D01*
X108443937Y-95646848D01*
X108150842Y-95120065D01*
X107824928Y-94612931D01*
X107467504Y-94127490D01*
X107080012Y-93665694D01*
X106664011Y-93229405D01*
X106221177Y-92820379D01*
X105753292Y-92440263D01*
X105262241Y-92090586D01*
X104750000Y-91772759D01*
X104218633Y-91488059D01*
X103670279Y-91237634D01*
X103107146Y-91022492D01*
X102531501Y-90843499D01*
X101945663Y-90701377D01*
X101351991Y-90596696D01*
X100752875Y-90529880D01*
X100150727Y-90501196D01*
X99547972Y-90510760D01*
X98947037Y-90558535D01*
X98350342Y-90644326D01*
X97760290Y-90767790D01*
X97179256Y-90928429D01*
X96609581Y-91125595D01*
X96053557Y-91358496D01*
X95513425Y-91626193D01*
X94991358Y-91927608D01*
X94489459Y-92261528D01*
X94009750Y-92626609D01*
X93554161Y-93021379D01*
X93124527Y-93444249D01*
X92722578Y-93893518D01*
X92349933Y-94367375D01*
X92008091Y-94863912D01*
X91698431Y-95381131D01*
X91422198Y-95916948D01*
X91180505Y-96469207D01*
X90974324Y-97035682D01*
X90804487Y-97614094D01*
X90671677Y-98202113D01*
X90576429Y-98797372D01*
X90519127Y-99397473D01*
X90500000Y-100000000D01*
X89500000Y-100000000D01*
X89521140Y-99334049D01*
X89584474Y-98670779D01*
X89689749Y-98012862D01*
X89836539Y-97362946D01*
X90024253Y-96723649D01*
X90252137Y-96097544D01*
X90519271Y-95487153D01*
X90824582Y-94894934D01*
X91166838Y-94323271D01*
X91544662Y-93774467D01*
X91956533Y-93250730D01*
X92400793Y-92754170D01*
X92875651Y-92286787D01*
X93379197Y-91850462D01*
X93909402Y-91446953D01*
X94464133Y-91077883D01*
X95041154Y-90744740D01*
X95638142Y-90448864D01*
X96252695Y-90191447D01*
X96882336Y-89973526D01*
X97524531Y-89795979D01*
X98176694Y-89659519D01*
X98836199Y-89564696D01*
X99500390Y-89511893D01*
X99930053Y-89505075D01*
X99975466Y-89500602D01*
X100024534Y-89500602D01*
X100050543Y-89503164D01*
G37*
G04 #@! TD.AperFunction*
D11*
X101810000Y-85000000D03*
X100540000Y-85000000D03*
X99270000Y-85000000D03*
D12*
X98000000Y-85000000D03*
D13*
X100000000Y-100000000D03*
G04 #@! TA.AperFunction,SMDPad,CuDef*
D10*
G36*
X100072828Y-92172029D02*
G01*
X100434056Y-92178705D01*
X101010493Y-92232120D01*
X101581412Y-92327960D01*
X102143693Y-92465702D01*
X102694265Y-92644594D01*
X103230123Y-92863659D01*
X103748339Y-93121700D01*
X104246083Y-93417308D01*
X104720636Y-93748868D01*
X105169407Y-94114569D01*
X105589944Y-94512415D01*
X105979951Y-94940232D01*
X106337297Y-95395684D01*
X106660031Y-95876283D01*
X106946391Y-96379404D01*
X107194812Y-96902300D01*
X107403937Y-97442115D01*
X107572624Y-97995899D01*
X107699953Y-98560629D01*
X107785227Y-99133221D01*
X107827980Y-99710547D01*
X107827980Y-100289453D01*
X107785227Y-100866779D01*
X107699953Y-101439371D01*
X107572624Y-102004101D01*
X107403937Y-102557885D01*
X107194812Y-103097700D01*
X106946391Y-103620596D01*
X106660031Y-104123717D01*
X106337297Y-104604316D01*
X105979951Y-105059768D01*
X105589944Y-105487585D01*
X105169407Y-105885431D01*
X104720636Y-106251132D01*
X104246083Y-106582692D01*
X103748339Y-106878300D01*
X103230123Y-107136341D01*
X102694265Y-107355406D01*
X102143693Y-107534298D01*
X101581412Y-107672040D01*
X101010493Y-107767880D01*
X100434056Y-107821295D01*
X99855249Y-107831992D01*
X99277231Y-107799914D01*
X98703162Y-107725236D01*
X98136175Y-107608365D01*
X97579368Y-107449940D01*
X97035781Y-107250825D01*
X96508384Y-107012109D01*
X96000057Y-106735096D01*
X95513577Y-106421298D01*
X95051599Y-106072429D01*
X94616648Y-105690394D01*
X94211099Y-105277280D01*
X93837167Y-104835344D01*
X93496895Y-104366999D01*
X93192139Y-103874802D01*
X92924567Y-103361443D01*
X92695637Y-102829725D01*
X92506602Y-102282552D01*
X92358493Y-101722912D01*
X92252119Y-101153863D01*
X92188061Y-100578511D01*
X92166670Y-100000000D01*
X93166670Y-100000000D01*
X93185331Y-100504659D01*
X93241211Y-101006561D01*
X93334005Y-101502966D01*
X93463206Y-101991162D01*
X93628110Y-102468484D01*
X93827814Y-102932323D01*
X94061228Y-103380147D01*
X94327079Y-103809509D01*
X94623912Y-104218066D01*
X94950108Y-104603585D01*
X95303885Y-104963960D01*
X95683310Y-105297225D01*
X96086312Y-105601557D01*
X96510689Y-105875296D01*
X96954123Y-106116946D01*
X97414192Y-106325188D01*
X97888385Y-106498883D01*
X98374110Y-106637084D01*
X98868716Y-106739035D01*
X99369500Y-106804180D01*
X99873728Y-106832163D01*
X100378645Y-106822831D01*
X100881494Y-106776235D01*
X101379529Y-106692630D01*
X101870030Y-106572472D01*
X102350316Y-106416417D01*
X102817767Y-106225318D01*
X103269827Y-106000219D01*
X103704029Y-105742348D01*
X104118001Y-105453115D01*
X104509482Y-105134099D01*
X104876334Y-104787042D01*
X105216552Y-104413840D01*
X105528280Y-104016531D01*
X105809814Y-103597285D01*
X106059617Y-103158392D01*
X106276325Y-102702249D01*
X106458753Y-102231347D01*
X106605906Y-101748258D01*
X106716980Y-101255621D01*
X106791367Y-100756126D01*
X106828663Y-100252502D01*
X106828663Y-99747498D01*
X106791367Y-99243874D01*
X106716980Y-98744379D01*
X106605906Y-98251742D01*
X106458753Y-97768653D01*
X106276325Y-97297751D01*
X106059617Y-96841608D01*
X105809814Y-96402715D01*
X105528280Y-95983469D01*
X105216552Y-95586160D01*
X104876334Y-95212958D01*
X104509482Y-94865901D01*
X104118001Y-94546885D01*
X103704029Y-94257652D01*
X103269827Y-93999781D01*
X102817767Y-93774682D01*
X102350316Y-93583583D01*
X101870030Y-93427528D01*
X101379529Y-93307370D01*
X100881494Y-93223765D01*
X100378645Y-93177169D01*
X99873728Y-93167837D01*
X99369500Y-93195820D01*
X98868716Y-93260965D01*
X98374110Y-93362916D01*
X97888385Y-93501117D01*
X97414192Y-93674812D01*
X96954123Y-93883054D01*
X96510689Y-94124704D01*
X96086312Y-94398443D01*
X95683310Y-94702775D01*
X95303885Y-95036040D01*
X94950108Y-95396415D01*
X94623912Y-95781934D01*
X94327079Y-96190491D01*
X94061228Y-96619853D01*
X93827814Y-97067677D01*
X93628110Y-97531516D01*
X93463206Y-98008838D01*
X93334005Y-98497034D01*
X93241211Y-98993439D01*
X93185331Y-99495341D01*
X93166670Y-100000000D01*
X92166670Y-100000000D01*
X92188061Y-99421489D01*
X92252119Y-98846137D01*
X92358493Y-98277088D01*
X92506602Y-97717448D01*
X92695637Y-97170275D01*
X92924567Y-96638557D01*
X93192139Y-96125198D01*
X93496895Y-95633001D01*
X93837167Y-95164656D01*
X94211099Y-94722720D01*
X94616648Y-94309606D01*
X95051599Y-93927571D01*
X95513577Y-93578702D01*
X96000057Y-93264904D01*
X96508384Y-92987891D01*
X97035781Y-92749175D01*
X97579368Y-92550060D01*
X98136175Y-92391635D01*
X98703162Y-92274764D01*
X99277231Y-92200086D01*
X99855249Y-92168008D01*
X99950183Y-92169762D01*
X99975466Y-92167272D01*
X100024534Y-92167272D01*
X100072828Y-92172029D01*
G37*
G04 #@! TD.AperFunction*
G04 #@! TA.AperFunction,SMDPad,CuDef*
G36*
X100073365Y-94838742D02*
G01*
X100073873Y-94838843D01*
X100238615Y-94838843D01*
X100713808Y-94882876D01*
X101182912Y-94970567D01*
X101641923Y-95101167D01*
X102086927Y-95273562D01*
X102514125Y-95486281D01*
X102919873Y-95737510D01*
X103300711Y-96025105D01*
X103653387Y-96346613D01*
X103974895Y-96699289D01*
X104262490Y-97080127D01*
X104513719Y-97485875D01*
X104726438Y-97913073D01*
X104898833Y-98358077D01*
X105029433Y-98817088D01*
X105117124Y-99286192D01*
X105161157Y-99761385D01*
X105161157Y-100238615D01*
X105117124Y-100713808D01*
X105029433Y-101182912D01*
X104898833Y-101641923D01*
X104726438Y-102086927D01*
X104513719Y-102514125D01*
X104262490Y-102919873D01*
X103974895Y-103300711D01*
X103653387Y-103653387D01*
X103300711Y-103974895D01*
X102919873Y-104262490D01*
X102514125Y-104513719D01*
X102086927Y-104726438D01*
X101641923Y-104898833D01*
X101182912Y-105029433D01*
X100713808Y-105117124D01*
X100238615Y-105161157D01*
X99761385Y-105161157D01*
X99286192Y-105117124D01*
X98817088Y-105029433D01*
X98358077Y-104898833D01*
X97913073Y-104726438D01*
X97485875Y-104513719D01*
X97080127Y-104262490D01*
X96699289Y-103974895D01*
X96346613Y-103653387D01*
X96025105Y-103300711D01*
X95737510Y-102919873D01*
X95486281Y-102514125D01*
X95273562Y-102086927D01*
X95101167Y-101641923D01*
X94970567Y-101182912D01*
X94882876Y-100713808D01*
X94838843Y-100238615D01*
X94838843Y-99807569D01*
X95837776Y-99807569D01*
X95837776Y-100192431D01*
X95873287Y-100575652D01*
X95944005Y-100953961D01*
X96049327Y-101324132D01*
X96188356Y-101683006D01*
X96359904Y-102027520D01*
X96562508Y-102354737D01*
X96794439Y-102661864D01*
X97053719Y-102946281D01*
X97338136Y-103205561D01*
X97645263Y-103437492D01*
X97972480Y-103640096D01*
X98316994Y-103811644D01*
X98675868Y-103950673D01*
X99046039Y-104055995D01*
X99424348Y-104126713D01*
X99807569Y-104162224D01*
X100192431Y-104162224D01*
X100575652Y-104126713D01*
X100953961Y-104055995D01*
X101324132Y-103950673D01*
X101683006Y-103811644D01*
X102027520Y-103640096D01*
X102354737Y-103437492D01*
X102661864Y-103205561D01*
X102946281Y-102946281D01*
X103205561Y-102661864D01*
X103437492Y-102354737D01*
X103640096Y-102027520D01*
X103811644Y-101683006D01*
X103950673Y-101324132D01*
X104055995Y-100953961D01*
X104126713Y-100575652D01*
X104162224Y-100192431D01*
X104162224Y-99807569D01*
X104126713Y-99424348D01*
X104055995Y-99046039D01*
X103950673Y-98675868D01*
X103811644Y-98316994D01*
X103640096Y-97972480D01*
X103437492Y-97645263D01*
X103205561Y-97338136D01*
X102946281Y-97053719D01*
X102661864Y-96794439D01*
X102354737Y-96562508D01*
X102027520Y-96359904D01*
X101683006Y-96188356D01*
X101324132Y-96049327D01*
X100953961Y-95944005D01*
X100575652Y-95873287D01*
X100192431Y-95837776D01*
X99807569Y-95837776D01*
X99424348Y-95873287D01*
X99046039Y-95944005D01*
X98675868Y-96049327D01*
X98316994Y-96188356D01*
X97972480Y-96359904D01*
X97645263Y-96562508D01*
X97338136Y-96794439D01*
X97053719Y-97053719D01*
X96794439Y-97338136D01*
X96562508Y-97645263D01*
X96359904Y-97972480D01*
X96188356Y-98316994D01*
X96049327Y-98675868D01*
X95944005Y-99046039D01*
X95873287Y-99424348D01*
X95837776Y-99807569D01*
X94838843Y-99807569D01*
X94838843Y-99761385D01*
X94882876Y-99286192D01*
X94970567Y-98817088D01*
X95101167Y-98358077D01*
X95273562Y-97913073D01*
X95486281Y-97485875D01*
X95737510Y-97080127D01*
X96025105Y-96699289D01*
X96346613Y-96346613D01*
X96699289Y-96025105D01*
X97080127Y-95737510D01*
X97485875Y-95486281D01*
X97913073Y-95273562D01*
X98358077Y-95101167D01*
X98817088Y-94970567D01*
X99286192Y-94882876D01*
X99761385Y-94838843D01*
X99926127Y-94838843D01*
X99926635Y-94838742D01*
X99975466Y-94833932D01*
X100024534Y-94833932D01*
X100073365Y-94838742D01*
G37*
G04 #@! TD.AperFunction*
D14*
X100500000Y-95300000D03*
X100500000Y-92666700D03*
D15*
X100000000Y-95333330D02*
X100466670Y-95333330D01*
X100466670Y-95333330D02*
X100500000Y-95300000D01*
X98000000Y-88000000D02*
X100000000Y-90000000D01*
X98000000Y-85000000D02*
X98000000Y-88000000D01*
M02*
