G04 #@! TF.GenerationSoftware,KiCad,Pcbnew,5.1.5-52549c5~84~ubuntu18.04.1*
G04 #@! TF.CreationDate,2020-01-15T09:57:23+01:00*
G04 #@! TF.ProjectId,geneva,67656e65-7661-42e6-9b69-6361645f7063,rev?*
G04 #@! TF.SameCoordinates,Original*
G04 #@! TF.FileFunction,Soldermask,Top*
G04 #@! TF.FilePolarity,Negative*
%FSLAX46Y46*%
G04 Gerber Fmt 4.6, Leading zero omitted, Abs format (unit mm)*
G04 Created by KiCad (PCBNEW 5.1.5-52549c5~84~ubuntu18.04.1) date 2020-01-15 09:57:23*
%MOMM*%
%LPD*%
G04 APERTURE LIST*
%ADD10C,0.101600*%
G04 APERTURE END LIST*
D10*
G36*
X57337916Y-113007334D02*
G01*
X57446492Y-113040271D01*
X57446495Y-113040272D01*
X57482601Y-113059571D01*
X57546557Y-113093756D01*
X57634264Y-113165736D01*
X57706244Y-113253443D01*
X57740429Y-113317399D01*
X57759728Y-113353505D01*
X57759729Y-113353508D01*
X57792666Y-113462084D01*
X57803787Y-113575000D01*
X57792666Y-113687916D01*
X57759729Y-113796492D01*
X57759728Y-113796495D01*
X57740429Y-113832601D01*
X57706244Y-113896557D01*
X57634264Y-113984264D01*
X57546557Y-114056244D01*
X57482601Y-114090429D01*
X57446495Y-114109728D01*
X57446492Y-114109729D01*
X57337916Y-114142666D01*
X57253298Y-114151000D01*
X56346702Y-114151000D01*
X56262084Y-114142666D01*
X56153508Y-114109729D01*
X56153505Y-114109728D01*
X56117399Y-114090429D01*
X56053443Y-114056244D01*
X55965736Y-113984264D01*
X55893756Y-113896557D01*
X55859571Y-113832601D01*
X55840272Y-113796495D01*
X55840271Y-113796492D01*
X55807334Y-113687916D01*
X55796213Y-113575000D01*
X55807334Y-113462084D01*
X55840271Y-113353508D01*
X55840272Y-113353505D01*
X55859571Y-113317399D01*
X55893756Y-113253443D01*
X55965736Y-113165736D01*
X56053443Y-113093756D01*
X56117399Y-113059571D01*
X56153505Y-113040272D01*
X56153508Y-113040271D01*
X56262084Y-113007334D01*
X56346702Y-112999000D01*
X57253298Y-112999000D01*
X57337916Y-113007334D01*
G37*
G36*
X100171046Y-89449623D02*
G01*
X100832605Y-89481136D01*
X100839824Y-89481711D01*
X101498085Y-89555124D01*
X101505267Y-89556156D01*
X102157526Y-89671167D01*
X102164633Y-89672653D01*
X102808264Y-89828797D01*
X102815250Y-89830728D01*
X103447714Y-90027389D01*
X103454567Y-90029760D01*
X104073294Y-90266142D01*
X104079975Y-90268941D01*
X104682436Y-90544075D01*
X104688932Y-90547294D01*
X105272735Y-90860088D01*
X105279016Y-90863715D01*
X105841825Y-91212919D01*
X105847853Y-91216929D01*
X106387355Y-91601106D01*
X106393141Y-91605510D01*
X106907196Y-92023135D01*
X106912680Y-92027888D01*
X107399203Y-92477267D01*
X107404390Y-92482373D01*
X107861427Y-92961699D01*
X107866271Y-92967113D01*
X108292017Y-93474499D01*
X108296484Y-93480179D01*
X108689185Y-94013532D01*
X108693285Y-94019488D01*
X109051374Y-94576685D01*
X109055112Y-94582929D01*
X109377120Y-95161682D01*
X109380436Y-95168112D01*
X109665112Y-95766169D01*
X109668014Y-95772797D01*
X109914172Y-96387671D01*
X109916652Y-96394484D01*
X110123322Y-97023750D01*
X110125363Y-97030699D01*
X110291707Y-97671804D01*
X110293304Y-97678875D01*
X110418647Y-98329221D01*
X110419795Y-98336398D01*
X110503637Y-98993362D01*
X110504330Y-99000624D01*
X110546336Y-99661581D01*
X110546566Y-99668837D01*
X110546566Y-100331163D01*
X110546336Y-100338419D01*
X110504330Y-100999376D01*
X110503637Y-101006638D01*
X110419795Y-101663602D01*
X110418647Y-101670779D01*
X110293304Y-102321125D01*
X110291707Y-102328196D01*
X110125363Y-102969301D01*
X110123322Y-102976250D01*
X109916652Y-103605516D01*
X109914172Y-103612329D01*
X109668014Y-104227203D01*
X109665112Y-104233831D01*
X109380436Y-104831888D01*
X109377120Y-104838318D01*
X109055112Y-105417071D01*
X109051374Y-105423315D01*
X108693285Y-105980512D01*
X108689185Y-105986468D01*
X108296484Y-106519821D01*
X108292017Y-106525501D01*
X107866271Y-107032887D01*
X107861427Y-107038301D01*
X107404390Y-107517627D01*
X107399203Y-107522733D01*
X106912680Y-107972112D01*
X106907196Y-107976865D01*
X106393141Y-108394490D01*
X106387355Y-108398894D01*
X105847853Y-108783071D01*
X105841825Y-108787081D01*
X105279016Y-109136285D01*
X105272735Y-109139912D01*
X104688932Y-109452706D01*
X104682436Y-109455925D01*
X104079975Y-109731059D01*
X104073294Y-109733858D01*
X103454567Y-109970240D01*
X103447714Y-109972611D01*
X102815250Y-110169272D01*
X102808264Y-110171203D01*
X102164633Y-110327347D01*
X102157526Y-110328833D01*
X101505267Y-110443844D01*
X101498085Y-110444876D01*
X100839824Y-110518289D01*
X100832605Y-110518864D01*
X100171046Y-110550377D01*
X100163787Y-110550493D01*
X100057614Y-110548808D01*
X100043383Y-110549394D01*
X100042875Y-110549444D01*
X99957128Y-110549444D01*
X99935253Y-110547290D01*
X99924986Y-110546704D01*
X99501547Y-110539984D01*
X99494321Y-110539640D01*
X98834070Y-110487150D01*
X98826858Y-110486346D01*
X98171263Y-110392085D01*
X98164135Y-110390828D01*
X97515847Y-110255179D01*
X97508799Y-110253470D01*
X96870445Y-110076985D01*
X96863500Y-110074824D01*
X96237619Y-109858205D01*
X96230820Y-109855607D01*
X95619936Y-109599727D01*
X95613343Y-109596716D01*
X95019906Y-109302600D01*
X95013507Y-109299171D01*
X94439951Y-108968029D01*
X94433727Y-108964167D01*
X93882350Y-108597329D01*
X93876415Y-108593103D01*
X93349377Y-108192004D01*
X93343742Y-108187426D01*
X92843191Y-107753697D01*
X92837866Y-107748778D01*
X92365828Y-107284171D01*
X92360832Y-107278931D01*
X91919214Y-106785324D01*
X91914547Y-106779762D01*
X91505128Y-106259142D01*
X91500835Y-106253312D01*
X91125258Y-105707771D01*
X91121323Y-105701648D01*
X90781118Y-105133411D01*
X90777577Y-105127046D01*
X90474096Y-104538378D01*
X90470977Y-104531827D01*
X90205425Y-103925049D01*
X90202736Y-103918335D01*
X89976199Y-103295930D01*
X89973951Y-103289083D01*
X89787341Y-102653545D01*
X89785528Y-102646562D01*
X89639608Y-102000497D01*
X89638233Y-101993362D01*
X89533585Y-101339365D01*
X89532670Y-101332187D01*
X89469711Y-100672847D01*
X89469251Y-100665617D01*
X89448237Y-100003630D01*
X89448237Y-99996370D01*
X89448247Y-99996034D01*
X90552004Y-99996034D01*
X90552004Y-100003966D01*
X90570775Y-100595274D01*
X90571278Y-100603190D01*
X90627511Y-101192100D01*
X90628515Y-101199968D01*
X90721992Y-101784155D01*
X90723493Y-101791944D01*
X90853830Y-102369013D01*
X90855822Y-102376690D01*
X91022494Y-102944326D01*
X91024969Y-102951862D01*
X91227305Y-103507773D01*
X91230253Y-103515137D01*
X91467453Y-104057129D01*
X91470862Y-104064291D01*
X91741946Y-104590121D01*
X91745803Y-104597052D01*
X92049693Y-105104632D01*
X92053981Y-105111305D01*
X92389460Y-105598600D01*
X92394163Y-105604987D01*
X92759860Y-106070009D01*
X92764959Y-106076085D01*
X93159433Y-106516999D01*
X93164906Y-106522740D01*
X93586530Y-106937726D01*
X93592357Y-106943108D01*
X94039465Y-107330529D01*
X94045621Y-107335530D01*
X94516393Y-107693810D01*
X94522855Y-107698411D01*
X95015403Y-108026109D01*
X95022142Y-108030291D01*
X95534494Y-108326098D01*
X95541486Y-108329844D01*
X96071551Y-108592551D01*
X96078766Y-108595846D01*
X96624440Y-108824412D01*
X96631850Y-108827243D01*
X97190911Y-109020735D01*
X97198485Y-109023090D01*
X97768693Y-109180736D01*
X97776401Y-109182606D01*
X98355462Y-109303770D01*
X98363274Y-109305148D01*
X98948856Y-109389342D01*
X98956739Y-109390221D01*
X99546485Y-109437106D01*
X99554408Y-109437483D01*
X100145936Y-109446869D01*
X100153867Y-109446743D01*
X100744810Y-109418593D01*
X100752717Y-109417965D01*
X101340663Y-109352394D01*
X101348514Y-109351265D01*
X101931126Y-109248535D01*
X101938890Y-109246910D01*
X102513827Y-109107432D01*
X102521472Y-109105319D01*
X103086383Y-108929664D01*
X103093878Y-108927070D01*
X103646533Y-108715931D01*
X103653850Y-108712866D01*
X104191981Y-108467109D01*
X104199087Y-108463587D01*
X104720567Y-108184185D01*
X104727436Y-108180219D01*
X105230136Y-107868312D01*
X105236741Y-107863918D01*
X105718641Y-107520757D01*
X105724952Y-107515954D01*
X106184125Y-107142916D01*
X106190120Y-107137721D01*
X106624704Y-106736315D01*
X106630357Y-106730751D01*
X107038611Y-106302587D01*
X107043900Y-106296676D01*
X107424168Y-105843489D01*
X107429071Y-105837254D01*
X107779844Y-105360846D01*
X107784342Y-105354312D01*
X108104188Y-104856620D01*
X108108262Y-104849815D01*
X108395893Y-104332853D01*
X108399528Y-104325803D01*
X108653801Y-103791617D01*
X108656981Y-103784351D01*
X108876858Y-103235126D01*
X108879571Y-103227672D01*
X109064166Y-102665621D01*
X109066401Y-102658010D01*
X109214985Y-102085354D01*
X109216732Y-102077617D01*
X109328692Y-101496711D01*
X109329945Y-101488879D01*
X109404837Y-100902041D01*
X109405591Y-100894145D01*
X109443113Y-100303728D01*
X109443365Y-100295800D01*
X109443365Y-99704200D01*
X109443113Y-99696272D01*
X109405591Y-99105855D01*
X109404837Y-99097959D01*
X109329945Y-98511121D01*
X109328692Y-98503289D01*
X109216732Y-97922383D01*
X109214985Y-97914646D01*
X109066401Y-97341990D01*
X109064166Y-97334379D01*
X108879571Y-96772328D01*
X108876858Y-96764874D01*
X108656981Y-96215649D01*
X108653801Y-96208383D01*
X108399528Y-95674197D01*
X108395893Y-95667147D01*
X108108262Y-95150185D01*
X108104188Y-95143380D01*
X107784342Y-94645688D01*
X107779844Y-94639154D01*
X107429071Y-94162746D01*
X107424168Y-94156511D01*
X107043900Y-93703324D01*
X107038611Y-93697413D01*
X106630357Y-93269249D01*
X106624704Y-93263685D01*
X106190120Y-92862279D01*
X106184125Y-92857084D01*
X105724952Y-92484046D01*
X105718641Y-92479243D01*
X105236741Y-92136082D01*
X105230136Y-92131688D01*
X104727436Y-91819781D01*
X104720567Y-91815815D01*
X104199087Y-91536413D01*
X104191981Y-91532891D01*
X103653850Y-91287134D01*
X103646533Y-91284069D01*
X103093878Y-91072930D01*
X103086383Y-91070336D01*
X102521472Y-90894681D01*
X102513827Y-90892568D01*
X101938890Y-90753090D01*
X101931126Y-90751465D01*
X101348514Y-90648735D01*
X101340663Y-90647606D01*
X100752717Y-90582035D01*
X100744810Y-90581407D01*
X100153867Y-90553257D01*
X100145936Y-90553131D01*
X99554408Y-90562517D01*
X99546485Y-90562894D01*
X98956739Y-90609779D01*
X98948856Y-90610658D01*
X98363274Y-90694852D01*
X98355462Y-90696230D01*
X97776401Y-90817394D01*
X97768693Y-90819264D01*
X97198485Y-90976910D01*
X97190911Y-90979265D01*
X96631850Y-91172757D01*
X96624440Y-91175588D01*
X96078766Y-91404154D01*
X96071551Y-91407449D01*
X95541486Y-91670156D01*
X95534494Y-91673902D01*
X95022142Y-91969709D01*
X95015403Y-91973891D01*
X94522855Y-92301589D01*
X94516393Y-92306190D01*
X94045621Y-92664470D01*
X94039465Y-92669471D01*
X93592357Y-93056892D01*
X93586530Y-93062274D01*
X93164906Y-93477260D01*
X93159433Y-93483001D01*
X92764959Y-93923915D01*
X92759860Y-93929991D01*
X92394163Y-94395013D01*
X92389460Y-94401400D01*
X92053981Y-94888695D01*
X92049693Y-94895368D01*
X91745803Y-95402948D01*
X91741946Y-95409879D01*
X91470862Y-95935709D01*
X91467453Y-95942871D01*
X91230253Y-96484863D01*
X91227305Y-96492227D01*
X91024969Y-97048138D01*
X91022494Y-97055674D01*
X90855822Y-97623310D01*
X90853830Y-97630987D01*
X90723493Y-98208056D01*
X90721992Y-98215845D01*
X90628515Y-98800032D01*
X90627511Y-98807900D01*
X90571278Y-99396810D01*
X90570775Y-99404726D01*
X90552004Y-99996034D01*
X89448247Y-99996034D01*
X89469251Y-99334383D01*
X89469711Y-99327153D01*
X89532670Y-98667813D01*
X89533585Y-98660635D01*
X89638233Y-98006638D01*
X89639608Y-97999503D01*
X89785528Y-97353438D01*
X89787341Y-97346455D01*
X89973951Y-96710917D01*
X89976199Y-96704070D01*
X90202736Y-96081665D01*
X90205425Y-96074951D01*
X90470977Y-95468173D01*
X90474096Y-95461622D01*
X90777577Y-94872954D01*
X90781118Y-94866589D01*
X91121323Y-94298352D01*
X91125258Y-94292229D01*
X91500835Y-93746688D01*
X91505128Y-93740858D01*
X91914547Y-93220238D01*
X91919214Y-93214676D01*
X92360832Y-92721069D01*
X92365828Y-92715829D01*
X92837866Y-92251222D01*
X92843191Y-92246303D01*
X93343742Y-91812574D01*
X93349377Y-91807996D01*
X93876415Y-91406897D01*
X93882350Y-91402671D01*
X94433727Y-91035833D01*
X94439951Y-91031971D01*
X95013507Y-90700829D01*
X95019906Y-90697400D01*
X95613343Y-90403284D01*
X95619936Y-90400273D01*
X96230820Y-90144393D01*
X96237619Y-90141795D01*
X96863500Y-89925176D01*
X96870445Y-89923015D01*
X97508799Y-89746530D01*
X97515847Y-89744821D01*
X98164135Y-89609172D01*
X98171263Y-89607915D01*
X98826858Y-89513654D01*
X98834070Y-89512850D01*
X99494321Y-89460360D01*
X99501546Y-89460016D01*
X100163787Y-89449507D01*
X100171046Y-89449623D01*
G37*
G36*
X100432717Y-92126820D02*
G01*
X100441132Y-92127286D01*
X101012996Y-92180278D01*
X101021347Y-92181364D01*
X101587698Y-92276437D01*
X101596008Y-92278150D01*
X102153772Y-92414786D01*
X102161924Y-92417106D01*
X102708092Y-92594567D01*
X102716018Y-92597470D01*
X103247608Y-92814790D01*
X103255297Y-92818270D01*
X103769389Y-93074257D01*
X103776812Y-93078303D01*
X104270573Y-93371545D01*
X104277672Y-93376124D01*
X104748449Y-93705046D01*
X104755176Y-93710125D01*
X105200373Y-94072915D01*
X105206722Y-94078491D01*
X105623891Y-94473151D01*
X105629831Y-94479202D01*
X106016703Y-94903580D01*
X106022182Y-94910055D01*
X106376664Y-95361857D01*
X106381628Y-95368689D01*
X106701793Y-95845462D01*
X106706234Y-95852635D01*
X106990304Y-96351733D01*
X106994221Y-96359248D01*
X107240663Y-96877978D01*
X107243996Y-96885718D01*
X107451453Y-97421228D01*
X107454207Y-97429202D01*
X107621553Y-97978584D01*
X107623716Y-97986756D01*
X107750028Y-98546976D01*
X107751581Y-98555283D01*
X107836170Y-99123276D01*
X107837108Y-99131698D01*
X107879519Y-99704412D01*
X107879832Y-99712867D01*
X107879832Y-100287133D01*
X107879519Y-100295588D01*
X107837108Y-100868302D01*
X107836170Y-100876724D01*
X107751581Y-101444717D01*
X107750028Y-101453024D01*
X107623716Y-102013244D01*
X107621553Y-102021416D01*
X107454207Y-102570798D01*
X107451453Y-102578772D01*
X107243996Y-103114282D01*
X107240663Y-103122022D01*
X106994221Y-103640752D01*
X106990304Y-103648267D01*
X106706234Y-104147365D01*
X106701793Y-104154538D01*
X106381628Y-104631311D01*
X106376664Y-104638143D01*
X106022182Y-105089945D01*
X106016703Y-105096420D01*
X105629831Y-105520798D01*
X105623891Y-105526849D01*
X105206722Y-105921509D01*
X105200373Y-105927085D01*
X104755176Y-106289875D01*
X104748449Y-106294954D01*
X104277672Y-106623876D01*
X104270573Y-106628455D01*
X103776812Y-106921697D01*
X103769389Y-106925743D01*
X103255297Y-107181730D01*
X103247608Y-107185210D01*
X102716018Y-107402530D01*
X102708092Y-107405433D01*
X102161924Y-107582894D01*
X102153772Y-107585214D01*
X101596008Y-107721850D01*
X101587698Y-107723563D01*
X101021347Y-107818636D01*
X101012996Y-107819722D01*
X100441132Y-107872714D01*
X100432717Y-107873180D01*
X100077701Y-107879742D01*
X100067761Y-107880323D01*
X100042872Y-107882774D01*
X99956564Y-107882774D01*
X99942963Y-107882232D01*
X99858522Y-107883792D01*
X99850060Y-107883636D01*
X99276671Y-107851814D01*
X99268255Y-107851035D01*
X98698746Y-107776950D01*
X98690425Y-107775553D01*
X98127981Y-107659619D01*
X98119755Y-107657604D01*
X97567394Y-107500443D01*
X97559382Y-107497840D01*
X97020110Y-107300306D01*
X97012295Y-107297111D01*
X96489106Y-107060299D01*
X96481530Y-107056527D01*
X95977285Y-106781739D01*
X95970002Y-106777414D01*
X95487418Y-106466129D01*
X95480488Y-106461286D01*
X95022190Y-106115196D01*
X95015655Y-106109871D01*
X94584170Y-105730881D01*
X94578018Y-105725061D01*
X94175706Y-105315244D01*
X94170025Y-105309012D01*
X93799073Y-104870598D01*
X93793855Y-104863948D01*
X93456304Y-104399348D01*
X93451600Y-104392343D01*
X93149268Y-103904061D01*
X93145093Y-103896725D01*
X92879650Y-103387450D01*
X92876032Y-103379834D01*
X92648927Y-102852355D01*
X92645869Y-102844463D01*
X92458348Y-102301672D01*
X92455886Y-102293589D01*
X92308954Y-101738397D01*
X92307103Y-101730188D01*
X92201574Y-101165659D01*
X92200328Y-101157288D01*
X92136784Y-100586559D01*
X92136160Y-100578125D01*
X92114939Y-100004215D01*
X92114939Y-99995785D01*
X92114953Y-99995381D01*
X93218728Y-99995381D01*
X93218728Y-100004619D01*
X93236905Y-100496205D01*
X93237588Y-100505417D01*
X93292021Y-100994322D01*
X93293381Y-101003459D01*
X93383773Y-101487014D01*
X93385805Y-101496026D01*
X93511657Y-101971568D01*
X93514349Y-101980405D01*
X93674988Y-102445380D01*
X93678325Y-102453994D01*
X93872851Y-102905808D01*
X93876815Y-102914152D01*
X94104186Y-103350380D01*
X94108756Y-103358409D01*
X94367722Y-103776653D01*
X94372872Y-103784321D01*
X94662018Y-104182297D01*
X94667720Y-104189565D01*
X94985466Y-104565097D01*
X94991689Y-104571924D01*
X95336304Y-104922967D01*
X95343015Y-104929316D01*
X95712626Y-105253961D01*
X95719788Y-105259797D01*
X96112332Y-105556231D01*
X96119904Y-105561521D01*
X96533302Y-105828178D01*
X96541245Y-105832895D01*
X96973198Y-106068288D01*
X96981467Y-106072406D01*
X97429614Y-106275252D01*
X97438165Y-106278748D01*
X97900077Y-106447945D01*
X97908862Y-106450799D01*
X98382009Y-106585421D01*
X98390982Y-106587619D01*
X98872788Y-106686932D01*
X98881898Y-106688462D01*
X99369703Y-106751918D01*
X99378902Y-106752770D01*
X99870066Y-106780028D01*
X99879302Y-106780199D01*
X100371145Y-106771109D01*
X100380369Y-106770597D01*
X100870200Y-106725207D01*
X100879360Y-106724015D01*
X101364501Y-106642575D01*
X101373549Y-106640710D01*
X101851344Y-106523664D01*
X101860229Y-106521136D01*
X102328071Y-106369125D01*
X102336745Y-106365948D01*
X102792088Y-106179799D01*
X102800504Y-106175989D01*
X103240867Y-105956714D01*
X103248978Y-105952294D01*
X103671924Y-105701108D01*
X103679687Y-105696101D01*
X104082939Y-105414358D01*
X104090311Y-105408791D01*
X104471662Y-105098030D01*
X104478603Y-105091934D01*
X104835944Y-104753875D01*
X104842415Y-104747282D01*
X105173831Y-104383735D01*
X105179798Y-104376683D01*
X105483447Y-103989671D01*
X105488877Y-103982198D01*
X105763127Y-103573799D01*
X105767990Y-103565944D01*
X106011315Y-103138432D01*
X106015585Y-103130241D01*
X106226682Y-102685908D01*
X106230335Y-102677423D01*
X106408043Y-102218706D01*
X106411060Y-102209974D01*
X106554399Y-101739405D01*
X106556762Y-101730475D01*
X106664959Y-101250600D01*
X106666657Y-101241519D01*
X106739118Y-100754954D01*
X106740140Y-100745774D01*
X106776470Y-100255195D01*
X106776811Y-100245963D01*
X106776811Y-99754037D01*
X106776470Y-99744805D01*
X106740140Y-99254226D01*
X106739118Y-99245046D01*
X106666657Y-98758481D01*
X106664959Y-98749400D01*
X106556762Y-98269525D01*
X106554399Y-98260595D01*
X106411060Y-97790026D01*
X106408043Y-97781294D01*
X106230335Y-97322577D01*
X106226682Y-97314092D01*
X106015585Y-96869759D01*
X106011315Y-96861568D01*
X105767990Y-96434056D01*
X105763127Y-96426201D01*
X105488877Y-96017802D01*
X105483447Y-96010329D01*
X105179798Y-95623317D01*
X105173831Y-95616265D01*
X104842415Y-95252718D01*
X104835944Y-95246125D01*
X104478603Y-94908066D01*
X104471662Y-94901970D01*
X104090311Y-94591209D01*
X104082939Y-94585642D01*
X103679687Y-94303899D01*
X103671924Y-94298892D01*
X103248978Y-94047706D01*
X103240867Y-94043286D01*
X102800504Y-93824011D01*
X102792088Y-93820201D01*
X102336745Y-93634052D01*
X102328071Y-93630875D01*
X101860229Y-93478864D01*
X101851344Y-93476336D01*
X101373549Y-93359290D01*
X101364501Y-93357425D01*
X100879360Y-93275985D01*
X100870200Y-93274793D01*
X100380369Y-93229403D01*
X100371145Y-93228891D01*
X99879302Y-93219801D01*
X99870066Y-93219972D01*
X99378902Y-93247230D01*
X99369703Y-93248082D01*
X98881898Y-93311538D01*
X98872788Y-93313068D01*
X98390982Y-93412381D01*
X98382009Y-93414579D01*
X97908862Y-93549201D01*
X97900077Y-93552055D01*
X97438165Y-93721252D01*
X97429614Y-93724748D01*
X96981467Y-93927594D01*
X96973198Y-93931712D01*
X96541245Y-94167105D01*
X96533302Y-94171822D01*
X96119904Y-94438479D01*
X96112332Y-94443769D01*
X95719788Y-94740203D01*
X95712626Y-94746039D01*
X95343015Y-95070684D01*
X95336304Y-95077033D01*
X94991689Y-95428076D01*
X94985466Y-95434903D01*
X94667720Y-95810435D01*
X94662018Y-95817703D01*
X94372872Y-96215679D01*
X94367722Y-96223347D01*
X94108756Y-96641591D01*
X94104186Y-96649620D01*
X93876815Y-97085848D01*
X93872851Y-97094192D01*
X93678325Y-97546006D01*
X93674988Y-97554620D01*
X93514349Y-98019595D01*
X93511657Y-98028432D01*
X93385805Y-98503974D01*
X93383773Y-98512986D01*
X93293381Y-98996541D01*
X93292021Y-99005678D01*
X93237588Y-99494583D01*
X93236905Y-99503795D01*
X93218728Y-99995381D01*
X92114953Y-99995381D01*
X92136160Y-99421875D01*
X92136784Y-99413441D01*
X92200328Y-98842712D01*
X92201574Y-98834341D01*
X92307103Y-98269812D01*
X92308954Y-98261603D01*
X92455886Y-97706411D01*
X92458348Y-97698328D01*
X92645869Y-97155537D01*
X92648927Y-97147645D01*
X92876032Y-96620166D01*
X92879650Y-96612550D01*
X93145093Y-96103275D01*
X93149268Y-96095939D01*
X93451600Y-95607657D01*
X93456304Y-95600652D01*
X93793855Y-95136052D01*
X93799073Y-95129402D01*
X94170025Y-94690988D01*
X94175706Y-94684756D01*
X94578018Y-94274939D01*
X94584170Y-94269119D01*
X95015655Y-93890129D01*
X95022190Y-93884804D01*
X95480488Y-93538714D01*
X95487418Y-93533871D01*
X95970002Y-93222586D01*
X95977285Y-93218261D01*
X96481530Y-92943473D01*
X96489106Y-92939701D01*
X97012295Y-92702889D01*
X97020110Y-92699694D01*
X97559382Y-92502160D01*
X97567394Y-92499557D01*
X98119755Y-92342396D01*
X98127981Y-92340381D01*
X98690425Y-92224447D01*
X98698746Y-92223050D01*
X99268255Y-92148965D01*
X99276671Y-92148186D01*
X99850060Y-92116364D01*
X99858521Y-92116208D01*
X100432717Y-92126820D01*
G37*
G36*
X100246278Y-94787479D02*
G01*
X100715722Y-94830979D01*
X100726162Y-94832435D01*
X101189609Y-94919069D01*
X101199885Y-94921486D01*
X101653340Y-95050505D01*
X101663342Y-95053857D01*
X102102968Y-95224169D01*
X102112611Y-95228427D01*
X102534651Y-95438577D01*
X102543886Y-95443721D01*
X102944719Y-95691907D01*
X102953419Y-95697867D01*
X103329652Y-95981985D01*
X103337787Y-95988739D01*
X103686170Y-96306334D01*
X103693666Y-96313830D01*
X104011261Y-96662213D01*
X104018015Y-96670348D01*
X104302133Y-97046581D01*
X104308093Y-97055281D01*
X104556279Y-97456114D01*
X104561423Y-97465349D01*
X104771573Y-97887389D01*
X104775831Y-97897032D01*
X104946143Y-98336658D01*
X104949495Y-98346660D01*
X105078514Y-98800115D01*
X105080931Y-98810391D01*
X105167565Y-99273838D01*
X105169021Y-99284278D01*
X105212521Y-99753722D01*
X105213009Y-99764277D01*
X105213009Y-100235723D01*
X105212521Y-100246278D01*
X105169021Y-100715722D01*
X105167565Y-100726162D01*
X105080931Y-101189609D01*
X105078514Y-101199885D01*
X104949495Y-101653340D01*
X104946143Y-101663342D01*
X104775831Y-102102968D01*
X104771573Y-102112611D01*
X104561423Y-102534651D01*
X104556279Y-102543886D01*
X104308093Y-102944719D01*
X104302133Y-102953419D01*
X104018015Y-103329652D01*
X104011261Y-103337787D01*
X103693666Y-103686170D01*
X103686170Y-103693666D01*
X103337787Y-104011261D01*
X103329652Y-104018015D01*
X102953419Y-104302133D01*
X102944719Y-104308093D01*
X102543886Y-104556279D01*
X102534651Y-104561423D01*
X102112611Y-104771573D01*
X102102968Y-104775831D01*
X101663342Y-104946143D01*
X101653340Y-104949495D01*
X101199885Y-105078514D01*
X101189609Y-105080931D01*
X100726162Y-105167565D01*
X100715722Y-105169021D01*
X100246278Y-105212521D01*
X100235723Y-105213009D01*
X100080536Y-105213009D01*
X100068284Y-105213611D01*
X100042869Y-105216114D01*
X99957131Y-105216114D01*
X99931716Y-105213611D01*
X99919464Y-105213009D01*
X99764277Y-105213009D01*
X99753722Y-105212521D01*
X99284278Y-105169021D01*
X99273838Y-105167565D01*
X98810391Y-105080931D01*
X98800115Y-105078514D01*
X98346660Y-104949495D01*
X98336658Y-104946143D01*
X97897032Y-104775831D01*
X97887389Y-104771573D01*
X97465349Y-104561423D01*
X97456114Y-104556279D01*
X97055281Y-104308093D01*
X97046581Y-104302133D01*
X96670348Y-104018015D01*
X96662213Y-104011261D01*
X96313830Y-103693666D01*
X96306334Y-103686170D01*
X95988739Y-103337787D01*
X95981985Y-103329652D01*
X95697867Y-102953419D01*
X95691907Y-102944719D01*
X95443721Y-102543886D01*
X95438577Y-102534651D01*
X95228427Y-102112611D01*
X95224169Y-102102968D01*
X95053857Y-101663342D01*
X95050505Y-101653340D01*
X94921486Y-101199885D01*
X94919069Y-101189609D01*
X94832435Y-100726162D01*
X94830979Y-100715722D01*
X94787479Y-100246278D01*
X94786991Y-100235723D01*
X94786991Y-99815750D01*
X95889628Y-99815750D01*
X95889628Y-100184250D01*
X95890161Y-100195784D01*
X95924164Y-100562730D01*
X95925759Y-100574164D01*
X95993472Y-100936397D01*
X95996116Y-100947636D01*
X96096961Y-101302074D01*
X96100630Y-101313022D01*
X96233757Y-101656660D01*
X96238421Y-101667222D01*
X96402672Y-101997081D01*
X96408290Y-102007167D01*
X96602293Y-102320494D01*
X96608818Y-102330020D01*
X96830884Y-102624083D01*
X96838260Y-102632965D01*
X97086531Y-102905305D01*
X97094695Y-102913469D01*
X97367035Y-103161740D01*
X97375917Y-103169116D01*
X97669980Y-103391182D01*
X97679506Y-103397707D01*
X97992833Y-103591710D01*
X98002919Y-103597328D01*
X98332778Y-103761579D01*
X98343340Y-103766243D01*
X98686978Y-103899370D01*
X98697926Y-103903039D01*
X99052364Y-104003884D01*
X99063603Y-104006528D01*
X99425836Y-104074241D01*
X99437270Y-104075836D01*
X99804216Y-104109839D01*
X99815750Y-104110372D01*
X100184250Y-104110372D01*
X100195784Y-104109839D01*
X100562730Y-104075836D01*
X100574164Y-104074241D01*
X100936397Y-104006528D01*
X100947636Y-104003884D01*
X101302074Y-103903039D01*
X101313022Y-103899370D01*
X101656660Y-103766243D01*
X101667222Y-103761579D01*
X101997081Y-103597328D01*
X102007167Y-103591710D01*
X102320494Y-103397707D01*
X102330020Y-103391182D01*
X102624083Y-103169116D01*
X102632965Y-103161740D01*
X102905305Y-102913469D01*
X102913469Y-102905305D01*
X103161740Y-102632965D01*
X103169116Y-102624083D01*
X103391182Y-102330020D01*
X103397707Y-102320494D01*
X103591710Y-102007167D01*
X103597328Y-101997081D01*
X103761579Y-101667222D01*
X103766243Y-101656660D01*
X103899370Y-101313022D01*
X103903039Y-101302074D01*
X104003884Y-100947636D01*
X104006528Y-100936397D01*
X104074241Y-100574164D01*
X104075836Y-100562730D01*
X104109839Y-100195784D01*
X104110372Y-100184250D01*
X104110372Y-99815750D01*
X104109839Y-99804216D01*
X104075836Y-99437270D01*
X104074241Y-99425836D01*
X104006528Y-99063603D01*
X104003884Y-99052364D01*
X103903039Y-98697926D01*
X103899370Y-98686978D01*
X103766243Y-98343340D01*
X103761579Y-98332778D01*
X103597328Y-98002919D01*
X103591710Y-97992833D01*
X103397707Y-97679506D01*
X103391182Y-97669980D01*
X103169116Y-97375917D01*
X103161740Y-97367035D01*
X102913469Y-97094695D01*
X102905305Y-97086531D01*
X102632965Y-96838260D01*
X102624083Y-96830884D01*
X102330020Y-96608818D01*
X102320494Y-96602293D01*
X102007167Y-96408290D01*
X101997081Y-96402672D01*
X101667222Y-96238421D01*
X101656660Y-96233757D01*
X101313022Y-96100630D01*
X101302074Y-96096961D01*
X100947636Y-95996116D01*
X100936397Y-95993472D01*
X100574164Y-95925759D01*
X100562730Y-95924164D01*
X100195784Y-95890161D01*
X100184250Y-95889628D01*
X99815750Y-95889628D01*
X99804216Y-95890161D01*
X99437270Y-95924164D01*
X99425836Y-95925759D01*
X99063603Y-95993472D01*
X99052364Y-95996116D01*
X98697926Y-96096961D01*
X98686978Y-96100630D01*
X98343340Y-96233757D01*
X98332778Y-96238421D01*
X98002919Y-96402672D01*
X97992833Y-96408290D01*
X97679506Y-96602293D01*
X97669980Y-96608818D01*
X97375917Y-96830884D01*
X97367035Y-96838260D01*
X97094695Y-97086531D01*
X97086531Y-97094695D01*
X96838260Y-97367035D01*
X96830884Y-97375917D01*
X96608818Y-97669980D01*
X96602293Y-97679506D01*
X96408290Y-97992833D01*
X96402672Y-98002919D01*
X96238421Y-98332778D01*
X96233757Y-98343340D01*
X96100630Y-98686978D01*
X96096961Y-98697926D01*
X95996116Y-99052364D01*
X95993472Y-99063603D01*
X95925759Y-99425836D01*
X95924164Y-99437270D01*
X95890161Y-99804216D01*
X95889628Y-99815750D01*
X94786991Y-99815750D01*
X94786991Y-99764277D01*
X94787479Y-99753722D01*
X94830979Y-99284278D01*
X94832435Y-99273838D01*
X94919069Y-98810391D01*
X94921486Y-98800115D01*
X95050505Y-98346660D01*
X95053857Y-98336658D01*
X95224169Y-97897032D01*
X95228427Y-97887389D01*
X95438577Y-97465349D01*
X95443721Y-97456114D01*
X95691907Y-97055281D01*
X95697867Y-97046581D01*
X95981985Y-96670348D01*
X95988739Y-96662213D01*
X96306334Y-96313830D01*
X96313830Y-96306334D01*
X96662213Y-95988739D01*
X96670348Y-95981985D01*
X97046581Y-95697867D01*
X97055281Y-95691907D01*
X97456114Y-95443721D01*
X97465349Y-95438577D01*
X97887389Y-95228427D01*
X97897032Y-95224169D01*
X98336658Y-95053857D01*
X98346660Y-95050505D01*
X98800115Y-94921486D01*
X98810391Y-94919069D01*
X99273838Y-94832435D01*
X99284278Y-94830979D01*
X99753722Y-94787479D01*
X99764277Y-94786991D01*
X100235723Y-94786991D01*
X100246278Y-94787479D01*
G37*
G36*
X100744098Y-97547033D02*
G01*
X101123864Y-97704337D01*
X101208352Y-97739333D01*
X101626168Y-98018509D01*
X101981491Y-98373832D01*
X102235379Y-98753802D01*
X102260668Y-98791650D01*
X102452967Y-99255902D01*
X102551000Y-99748747D01*
X102551000Y-100251253D01*
X102452967Y-100744098D01*
X102278351Y-101165659D01*
X102260667Y-101208352D01*
X101981491Y-101626168D01*
X101626168Y-101981491D01*
X101208352Y-102260667D01*
X101208351Y-102260668D01*
X101208350Y-102260668D01*
X100744098Y-102452967D01*
X100251253Y-102551000D01*
X99748747Y-102551000D01*
X99255902Y-102452967D01*
X98791650Y-102260668D01*
X98791649Y-102260668D01*
X98791648Y-102260667D01*
X98373832Y-101981491D01*
X98018509Y-101626168D01*
X97739333Y-101208352D01*
X97721649Y-101165659D01*
X97547033Y-100744098D01*
X97449000Y-100251253D01*
X97449000Y-99748747D01*
X97547033Y-99255902D01*
X97739332Y-98791650D01*
X97764621Y-98753802D01*
X98018509Y-98373832D01*
X98373832Y-98018509D01*
X98791648Y-97739333D01*
X98876136Y-97704337D01*
X99255902Y-97547033D01*
X99748747Y-97449000D01*
X100251253Y-97449000D01*
X100744098Y-97547033D01*
G37*
G36*
X57337916Y-105857334D02*
G01*
X57446492Y-105890271D01*
X57446495Y-105890272D01*
X57482601Y-105909571D01*
X57546557Y-105943756D01*
X57634264Y-106015736D01*
X57706244Y-106103443D01*
X57740429Y-106167399D01*
X57759728Y-106203505D01*
X57759729Y-106203508D01*
X57792666Y-106312084D01*
X57803787Y-106425000D01*
X57792666Y-106537916D01*
X57761483Y-106640710D01*
X57759728Y-106646495D01*
X57740429Y-106682601D01*
X57706244Y-106746557D01*
X57634264Y-106834264D01*
X57546557Y-106906244D01*
X57487657Y-106937726D01*
X57446495Y-106959728D01*
X57446492Y-106959729D01*
X57337916Y-106992666D01*
X57253298Y-107001000D01*
X56346702Y-107001000D01*
X56262084Y-106992666D01*
X56153508Y-106959729D01*
X56153505Y-106959728D01*
X56112343Y-106937726D01*
X56053443Y-106906244D01*
X55965736Y-106834264D01*
X55893756Y-106746557D01*
X55859571Y-106682601D01*
X55840272Y-106646495D01*
X55838517Y-106640710D01*
X55807334Y-106537916D01*
X55796213Y-106425000D01*
X55807334Y-106312084D01*
X55840271Y-106203508D01*
X55840272Y-106203505D01*
X55859571Y-106167399D01*
X55893756Y-106103443D01*
X55965736Y-106015736D01*
X56053443Y-105943756D01*
X56117399Y-105909571D01*
X56153505Y-105890272D01*
X56153508Y-105890271D01*
X56262084Y-105857334D01*
X56346702Y-105849000D01*
X57253298Y-105849000D01*
X57337916Y-105857334D01*
G37*
G36*
X70744098Y-97547033D02*
G01*
X71123864Y-97704337D01*
X71208352Y-97739333D01*
X71626168Y-98018509D01*
X71981491Y-98373832D01*
X72235379Y-98753802D01*
X72260668Y-98791650D01*
X72452967Y-99255902D01*
X72551000Y-99748747D01*
X72551000Y-100251253D01*
X72452967Y-100744098D01*
X72278351Y-101165659D01*
X72260667Y-101208352D01*
X71981491Y-101626168D01*
X71626168Y-101981491D01*
X71208352Y-102260667D01*
X71208351Y-102260668D01*
X71208350Y-102260668D01*
X70744098Y-102452967D01*
X70251253Y-102551000D01*
X69748747Y-102551000D01*
X69255902Y-102452967D01*
X68791650Y-102260668D01*
X68791649Y-102260668D01*
X68791648Y-102260667D01*
X68373832Y-101981491D01*
X68018509Y-101626168D01*
X67739333Y-101208352D01*
X67721649Y-101165659D01*
X67547033Y-100744098D01*
X67449000Y-100251253D01*
X67449000Y-99748747D01*
X67547033Y-99255902D01*
X67739332Y-98791650D01*
X67764621Y-98753802D01*
X68018509Y-98373832D01*
X68373832Y-98018509D01*
X68791648Y-97739333D01*
X68876136Y-97704337D01*
X69255902Y-97547033D01*
X69748747Y-97449000D01*
X70251253Y-97449000D01*
X70744098Y-97547033D01*
G37*
G36*
X57113512Y-100643927D02*
G01*
X57262812Y-100673624D01*
X57426784Y-100741544D01*
X57574354Y-100840147D01*
X57699853Y-100965646D01*
X57798456Y-101113216D01*
X57866376Y-101277188D01*
X57878336Y-101337318D01*
X57900878Y-101450643D01*
X57901000Y-101451259D01*
X57901000Y-101628741D01*
X57866376Y-101802812D01*
X57798456Y-101966784D01*
X57699853Y-102114354D01*
X57574354Y-102239853D01*
X57426784Y-102338456D01*
X57262812Y-102406376D01*
X57113512Y-102436073D01*
X57088742Y-102441000D01*
X56911258Y-102441000D01*
X56886488Y-102436073D01*
X56737188Y-102406376D01*
X56573216Y-102338456D01*
X56425646Y-102239853D01*
X56300147Y-102114354D01*
X56201544Y-101966784D01*
X56133624Y-101802812D01*
X56099000Y-101628741D01*
X56099000Y-101451259D01*
X56099123Y-101450643D01*
X56121664Y-101337318D01*
X56133624Y-101277188D01*
X56201544Y-101113216D01*
X56300147Y-100965646D01*
X56425646Y-100840147D01*
X56573216Y-100741544D01*
X56737188Y-100673624D01*
X56886488Y-100643927D01*
X56911258Y-100639000D01*
X57088742Y-100639000D01*
X57113512Y-100643927D01*
G37*
G36*
X77193258Y-99451764D02*
G01*
X77214339Y-99458160D01*
X77233774Y-99468548D01*
X77254033Y-99485173D01*
X77274407Y-99498786D01*
X77297046Y-99508163D01*
X77321080Y-99512943D01*
X77345584Y-99512943D01*
X77369617Y-99508162D01*
X77392256Y-99498784D01*
X77412627Y-99485173D01*
X77432886Y-99468548D01*
X77452321Y-99458160D01*
X77473402Y-99451764D01*
X77501470Y-99449000D01*
X77965190Y-99449000D01*
X77993258Y-99451764D01*
X78014339Y-99458160D01*
X78033775Y-99468548D01*
X78050806Y-99482524D01*
X78064782Y-99499555D01*
X78075170Y-99518991D01*
X78081566Y-99540072D01*
X78084330Y-99568140D01*
X78084330Y-100431860D01*
X78081566Y-100459928D01*
X78075170Y-100481009D01*
X78064782Y-100500445D01*
X78050806Y-100517476D01*
X78033775Y-100531452D01*
X78014339Y-100541840D01*
X77993258Y-100548236D01*
X77965190Y-100551000D01*
X77501470Y-100551000D01*
X77473402Y-100548236D01*
X77452321Y-100541840D01*
X77432886Y-100531452D01*
X77412627Y-100514827D01*
X77392253Y-100501214D01*
X77369614Y-100491837D01*
X77345580Y-100487057D01*
X77321076Y-100487057D01*
X77297043Y-100491838D01*
X77274404Y-100501216D01*
X77254033Y-100514827D01*
X77233774Y-100531452D01*
X77214339Y-100541840D01*
X77193258Y-100548236D01*
X77165190Y-100551000D01*
X76701470Y-100551000D01*
X76673402Y-100548236D01*
X76652321Y-100541840D01*
X76632885Y-100531452D01*
X76615854Y-100517476D01*
X76601878Y-100500445D01*
X76591490Y-100481009D01*
X76585094Y-100459928D01*
X76582330Y-100431860D01*
X76582330Y-99568140D01*
X76585094Y-99540072D01*
X76591490Y-99518991D01*
X76601878Y-99499555D01*
X76615854Y-99482524D01*
X76632885Y-99468548D01*
X76652321Y-99458160D01*
X76673402Y-99451764D01*
X76701470Y-99449000D01*
X77165190Y-99449000D01*
X77193258Y-99451764D01*
G37*
G36*
X79859928Y-99451764D02*
G01*
X79881009Y-99458160D01*
X79900444Y-99468548D01*
X79920703Y-99485173D01*
X79941077Y-99498786D01*
X79963716Y-99508163D01*
X79987750Y-99512943D01*
X80012254Y-99512943D01*
X80036287Y-99508162D01*
X80058926Y-99498784D01*
X80079297Y-99485173D01*
X80099556Y-99468548D01*
X80118991Y-99458160D01*
X80140072Y-99451764D01*
X80168140Y-99449000D01*
X80631860Y-99449000D01*
X80659928Y-99451764D01*
X80681009Y-99458160D01*
X80700445Y-99468548D01*
X80717476Y-99482524D01*
X80731452Y-99499555D01*
X80741840Y-99518991D01*
X80748236Y-99540072D01*
X80751000Y-99568140D01*
X80751000Y-100431860D01*
X80748236Y-100459928D01*
X80741840Y-100481009D01*
X80731452Y-100500445D01*
X80717476Y-100517476D01*
X80700445Y-100531452D01*
X80681009Y-100541840D01*
X80659928Y-100548236D01*
X80631860Y-100551000D01*
X80168140Y-100551000D01*
X80140072Y-100548236D01*
X80118991Y-100541840D01*
X80099556Y-100531452D01*
X80079297Y-100514827D01*
X80058923Y-100501214D01*
X80036284Y-100491837D01*
X80012250Y-100487057D01*
X79987746Y-100487057D01*
X79963713Y-100491838D01*
X79941074Y-100501216D01*
X79920703Y-100514827D01*
X79900444Y-100531452D01*
X79881009Y-100541840D01*
X79859928Y-100548236D01*
X79831860Y-100551000D01*
X79368140Y-100551000D01*
X79340072Y-100548236D01*
X79318991Y-100541840D01*
X79299555Y-100531452D01*
X79282524Y-100517476D01*
X79268548Y-100500445D01*
X79258160Y-100481009D01*
X79251764Y-100459928D01*
X79249000Y-100431860D01*
X79249000Y-99568140D01*
X79251764Y-99540072D01*
X79258160Y-99518991D01*
X79268548Y-99499555D01*
X79282524Y-99482524D01*
X79299555Y-99468548D01*
X79318991Y-99458160D01*
X79340072Y-99451764D01*
X79368140Y-99449000D01*
X79831860Y-99449000D01*
X79859928Y-99451764D01*
G37*
G36*
X74526598Y-99451764D02*
G01*
X74547679Y-99458160D01*
X74567114Y-99468548D01*
X74587373Y-99485173D01*
X74607747Y-99498786D01*
X74630386Y-99508163D01*
X74654420Y-99512943D01*
X74678924Y-99512943D01*
X74702957Y-99508162D01*
X74725596Y-99498784D01*
X74745967Y-99485173D01*
X74766226Y-99468548D01*
X74785661Y-99458160D01*
X74806742Y-99451764D01*
X74834810Y-99449000D01*
X75298530Y-99449000D01*
X75326598Y-99451764D01*
X75347679Y-99458160D01*
X75367115Y-99468548D01*
X75384146Y-99482524D01*
X75398122Y-99499555D01*
X75408510Y-99518991D01*
X75414906Y-99540072D01*
X75417670Y-99568140D01*
X75417670Y-100431860D01*
X75414906Y-100459928D01*
X75408510Y-100481009D01*
X75398122Y-100500445D01*
X75384146Y-100517476D01*
X75367115Y-100531452D01*
X75347679Y-100541840D01*
X75326598Y-100548236D01*
X75298530Y-100551000D01*
X74834810Y-100551000D01*
X74806742Y-100548236D01*
X74785661Y-100541840D01*
X74766226Y-100531452D01*
X74745967Y-100514827D01*
X74725593Y-100501214D01*
X74702954Y-100491837D01*
X74678920Y-100487057D01*
X74654416Y-100487057D01*
X74630383Y-100491838D01*
X74607744Y-100501216D01*
X74587373Y-100514827D01*
X74567114Y-100531452D01*
X74547679Y-100541840D01*
X74526598Y-100548236D01*
X74498530Y-100551000D01*
X74034810Y-100551000D01*
X74006742Y-100548236D01*
X73985661Y-100541840D01*
X73966225Y-100531452D01*
X73949194Y-100517476D01*
X73935218Y-100500445D01*
X73924830Y-100481009D01*
X73918434Y-100459928D01*
X73915670Y-100431860D01*
X73915670Y-99568140D01*
X73918434Y-99540072D01*
X73924830Y-99518991D01*
X73935218Y-99499555D01*
X73949194Y-99482524D01*
X73966225Y-99468548D01*
X73985661Y-99458160D01*
X74006742Y-99451764D01*
X74034810Y-99449000D01*
X74498530Y-99449000D01*
X74526598Y-99451764D01*
G37*
G36*
X57901000Y-99901000D02*
G01*
X56099000Y-99901000D01*
X56099000Y-98099000D01*
X57901000Y-98099000D01*
X57901000Y-99901000D01*
G37*
G36*
X85339059Y-85777860D02*
G01*
X85475732Y-85834472D01*
X85598735Y-85916660D01*
X85703340Y-86021265D01*
X85785528Y-86144268D01*
X85842140Y-86280941D01*
X85871000Y-86426033D01*
X85871000Y-86573967D01*
X85842140Y-86719059D01*
X85785528Y-86855732D01*
X85703340Y-86978735D01*
X85598735Y-87083340D01*
X85475732Y-87165528D01*
X85475731Y-87165529D01*
X85475730Y-87165529D01*
X85339059Y-87222140D01*
X85193968Y-87251000D01*
X85046032Y-87251000D01*
X84900941Y-87222140D01*
X84764270Y-87165529D01*
X84764269Y-87165529D01*
X84764268Y-87165528D01*
X84641265Y-87083340D01*
X84536660Y-86978735D01*
X84454472Y-86855732D01*
X84397860Y-86719059D01*
X84369000Y-86573967D01*
X84369000Y-86426033D01*
X84397860Y-86280941D01*
X84454472Y-86144268D01*
X84536660Y-86021265D01*
X84641265Y-85916660D01*
X84764268Y-85834472D01*
X84900941Y-85777860D01*
X85046032Y-85749000D01*
X85193968Y-85749000D01*
X85339059Y-85777860D01*
G37*
G36*
X77719059Y-85777860D02*
G01*
X77855732Y-85834472D01*
X77978735Y-85916660D01*
X78083340Y-86021265D01*
X78165528Y-86144268D01*
X78222140Y-86280941D01*
X78251000Y-86426033D01*
X78251000Y-86573967D01*
X78222140Y-86719059D01*
X78165528Y-86855732D01*
X78083340Y-86978735D01*
X77978735Y-87083340D01*
X77855732Y-87165528D01*
X77855731Y-87165529D01*
X77855730Y-87165529D01*
X77719059Y-87222140D01*
X77573968Y-87251000D01*
X77426032Y-87251000D01*
X77280941Y-87222140D01*
X77144270Y-87165529D01*
X77144269Y-87165529D01*
X77144268Y-87165528D01*
X77021265Y-87083340D01*
X76916660Y-86978735D01*
X76834472Y-86855732D01*
X76777860Y-86719059D01*
X76749000Y-86573967D01*
X76749000Y-86426033D01*
X76777860Y-86280941D01*
X76834472Y-86144268D01*
X76916660Y-86021265D01*
X77021265Y-85916660D01*
X77144268Y-85834472D01*
X77280941Y-85777860D01*
X77426032Y-85749000D01*
X77573968Y-85749000D01*
X77719059Y-85777860D01*
G37*
G36*
X74839059Y-85777860D02*
G01*
X74975732Y-85834472D01*
X75098735Y-85916660D01*
X75203340Y-86021265D01*
X75285528Y-86144268D01*
X75342140Y-86280941D01*
X75371000Y-86426033D01*
X75371000Y-86573967D01*
X75342140Y-86719059D01*
X75285528Y-86855732D01*
X75203340Y-86978735D01*
X75098735Y-87083340D01*
X74975732Y-87165528D01*
X74975731Y-87165529D01*
X74975730Y-87165529D01*
X74839059Y-87222140D01*
X74693968Y-87251000D01*
X74546032Y-87251000D01*
X74400941Y-87222140D01*
X74264270Y-87165529D01*
X74264269Y-87165529D01*
X74264268Y-87165528D01*
X74141265Y-87083340D01*
X74036660Y-86978735D01*
X73954472Y-86855732D01*
X73897860Y-86719059D01*
X73869000Y-86573967D01*
X73869000Y-86426033D01*
X73897860Y-86280941D01*
X73954472Y-86144268D01*
X74036660Y-86021265D01*
X74141265Y-85916660D01*
X74264268Y-85834472D01*
X74400941Y-85777860D01*
X74546032Y-85749000D01*
X74693968Y-85749000D01*
X74839059Y-85777860D01*
G37*
G36*
X67219059Y-85777860D02*
G01*
X67355732Y-85834472D01*
X67478735Y-85916660D01*
X67583340Y-86021265D01*
X67665528Y-86144268D01*
X67722140Y-86280941D01*
X67751000Y-86426033D01*
X67751000Y-86573967D01*
X67722140Y-86719059D01*
X67665528Y-86855732D01*
X67583340Y-86978735D01*
X67478735Y-87083340D01*
X67355732Y-87165528D01*
X67355731Y-87165529D01*
X67355730Y-87165529D01*
X67219059Y-87222140D01*
X67073968Y-87251000D01*
X66926032Y-87251000D01*
X66780941Y-87222140D01*
X66644270Y-87165529D01*
X66644269Y-87165529D01*
X66644268Y-87165528D01*
X66521265Y-87083340D01*
X66416660Y-86978735D01*
X66334472Y-86855732D01*
X66277860Y-86719059D01*
X66249000Y-86573967D01*
X66249000Y-86426033D01*
X66277860Y-86280941D01*
X66334472Y-86144268D01*
X66416660Y-86021265D01*
X66521265Y-85916660D01*
X66644268Y-85834472D01*
X66780941Y-85777860D01*
X66926032Y-85749000D01*
X67073968Y-85749000D01*
X67219059Y-85777860D01*
G37*
G36*
X64339059Y-85777860D02*
G01*
X64475732Y-85834472D01*
X64598735Y-85916660D01*
X64703340Y-86021265D01*
X64785528Y-86144268D01*
X64842140Y-86280941D01*
X64871000Y-86426033D01*
X64871000Y-86573967D01*
X64842140Y-86719059D01*
X64785528Y-86855732D01*
X64703340Y-86978735D01*
X64598735Y-87083340D01*
X64475732Y-87165528D01*
X64475731Y-87165529D01*
X64475730Y-87165529D01*
X64339059Y-87222140D01*
X64193968Y-87251000D01*
X64046032Y-87251000D01*
X63900941Y-87222140D01*
X63764270Y-87165529D01*
X63764269Y-87165529D01*
X63764268Y-87165528D01*
X63641265Y-87083340D01*
X63536660Y-86978735D01*
X63454472Y-86855732D01*
X63397860Y-86719059D01*
X63369000Y-86573967D01*
X63369000Y-86426033D01*
X63397860Y-86280941D01*
X63454472Y-86144268D01*
X63536660Y-86021265D01*
X63641265Y-85916660D01*
X63764268Y-85834472D01*
X63900941Y-85777860D01*
X64046032Y-85749000D01*
X64193968Y-85749000D01*
X64339059Y-85777860D01*
G37*
G36*
X56719059Y-85777860D02*
G01*
X56855732Y-85834472D01*
X56978735Y-85916660D01*
X57083340Y-86021265D01*
X57165528Y-86144268D01*
X57222140Y-86280941D01*
X57251000Y-86426033D01*
X57251000Y-86573967D01*
X57222140Y-86719059D01*
X57165528Y-86855732D01*
X57083340Y-86978735D01*
X56978735Y-87083340D01*
X56855732Y-87165528D01*
X56855731Y-87165529D01*
X56855730Y-87165529D01*
X56719059Y-87222140D01*
X56573968Y-87251000D01*
X56426032Y-87251000D01*
X56280941Y-87222140D01*
X56144270Y-87165529D01*
X56144269Y-87165529D01*
X56144268Y-87165528D01*
X56021265Y-87083340D01*
X55916660Y-86978735D01*
X55834472Y-86855732D01*
X55777860Y-86719059D01*
X55749000Y-86573967D01*
X55749000Y-86426033D01*
X55777860Y-86280941D01*
X55834472Y-86144268D01*
X55916660Y-86021265D01*
X56021265Y-85916660D01*
X56144268Y-85834472D01*
X56280941Y-85777860D01*
X56426032Y-85749000D01*
X56573968Y-85749000D01*
X56719059Y-85777860D01*
G37*
M02*
