G04 #@! TF.GenerationSoftware,KiCad,Pcbnew,5.1.5-52549c5~84~ubuntu18.04.1*
G04 #@! TF.CreationDate,2020-01-15T10:07:14+01:00*
G04 #@! TF.ProjectId,geneva,67656e65-7661-42e6-9b69-6361645f7063,rev?*
G04 #@! TF.SameCoordinates,Original*
G04 #@! TF.FileFunction,Soldermask,Top*
G04 #@! TF.FilePolarity,Negative*
%FSLAX46Y46*%
G04 Gerber Fmt 4.6, Leading zero omitted, Abs format (unit mm)*
G04 Created by KiCad (PCBNEW 5.1.5-52549c5~84~ubuntu18.04.1) date 2020-01-15 10:07:14*
%MOMM*%
%LPD*%
G04 APERTURE LIST*
%ADD10C,0.101600*%
G04 APERTURE END LIST*
D10*
G36*
X70744098Y-97547033D02*
G01*
X71208350Y-97739332D01*
X71208352Y-97739333D01*
X71626168Y-98018509D01*
X71981491Y-98373832D01*
X72260667Y-98791648D01*
X72260668Y-98791650D01*
X72452967Y-99255902D01*
X72551000Y-99748747D01*
X72551000Y-100251253D01*
X72452967Y-100744098D01*
X72260668Y-101208350D01*
X72260667Y-101208352D01*
X71981491Y-101626168D01*
X71626168Y-101981491D01*
X71208352Y-102260667D01*
X71208351Y-102260668D01*
X71208350Y-102260668D01*
X70744098Y-102452967D01*
X70251253Y-102551000D01*
X69748747Y-102551000D01*
X69255902Y-102452967D01*
X68791650Y-102260668D01*
X68791649Y-102260668D01*
X68791648Y-102260667D01*
X68373832Y-101981491D01*
X68018509Y-101626168D01*
X67739333Y-101208352D01*
X67739332Y-101208350D01*
X67547033Y-100744098D01*
X67449000Y-100251253D01*
X67449000Y-99748747D01*
X67547033Y-99255902D01*
X67739332Y-98791650D01*
X67739333Y-98791648D01*
X68018509Y-98373832D01*
X68373832Y-98018509D01*
X68791648Y-97739333D01*
X68791650Y-97739332D01*
X69255902Y-97547033D01*
X69748747Y-97449000D01*
X70251253Y-97449000D01*
X70744098Y-97547033D01*
G37*
M02*
