G04 #@! TF.GenerationSoftware,KiCad,Pcbnew,5.1.5-52549c5~84~ubuntu18.04.1*
G04 #@! TF.CreationDate,2020-01-15T10:07:14+01:00*
G04 #@! TF.ProjectId,geneva,67656e65-7661-42e6-9b69-6361645f7063,rev?*
G04 #@! TF.SameCoordinates,Original*
G04 #@! TF.FileFunction,Profile,NP*
%FSLAX46Y46*%
G04 Gerber Fmt 4.6, Leading zero omitted, Abs format (unit mm)*
G04 Created by KiCad (PCBNEW 5.1.5-52549c5~84~ubuntu18.04.1) date 2020-01-15 10:07:14*
%MOMM*%
%LPD*%
G04 APERTURE LIST*
%ADD10C,0.050000*%
G04 APERTURE END LIST*
D10*
X62425659Y-75153920D02*
G75*
G02X52264185Y-81015182I-7425659J1134682D01*
G01*
X67400000Y-85000000D02*
X67400001Y-74150001D01*
X62441068Y-75143512D02*
G75*
G02X67400001Y-74150001I7558932J-24856488D01*
G01*
X62441068Y-75143512D02*
X62425659Y-75153920D01*
X95307562Y-105874499D02*
X95304507Y-105863469D01*
X44695493Y-94136531D02*
G75*
G02X44690758Y-105867257I-4695493J-5863469D01*
G01*
X67400000Y-115000000D02*
X67399213Y-125857826D01*
X58309619Y-109751666D02*
X48913244Y-115176665D01*
X87725000Y-118984818D02*
X87735814Y-118984817D01*
X72600000Y-115000000D02*
X72600000Y-125850000D01*
X58309619Y-90248334D02*
X48913245Y-84823335D01*
X95307562Y-105874500D02*
G75*
G02X93686755Y-110673334I-25307562J5874500D01*
G01*
X91086755Y-115176665D02*
G75*
G02X87735814Y-118984817I-21086755J15176665D01*
G01*
X55709619Y-105248334D02*
X46314691Y-110672682D01*
X81690381Y-109751666D02*
G75*
G02X84290381Y-105248334I1300000J2251666D01*
G01*
X67400000Y-115000000D02*
G75*
G02X72600000Y-115000000I2600000J0D01*
G01*
X46314691Y-110672682D02*
G75*
G02X44700000Y-105900000I23685309J10672682D01*
G01*
X95300000Y-94110000D02*
X95309242Y-94132743D01*
X84290381Y-94751666D02*
G75*
G02X81690381Y-90248334I-1300000J2251666D01*
G01*
X87728467Y-81013036D02*
G75*
G02X77580000Y-75160000I-2728467J6993798D01*
G01*
X87740453Y-81019516D02*
X87728467Y-81013036D01*
X95304507Y-105863469D02*
G75*
G02X95309242Y-94132743I4695493J5863469D01*
G01*
X77578228Y-124846674D02*
X77552153Y-124858548D01*
X44698455Y-94099640D02*
X44695493Y-94136531D01*
X44700000Y-105900000D02*
X44690758Y-105867257D01*
X62475000Y-124875000D02*
X62426573Y-124852075D01*
X77580000Y-75160000D02*
X77573427Y-75147926D01*
X55709619Y-94751666D02*
X46313245Y-89326666D01*
X67399213Y-125857826D02*
G75*
G02X62475000Y-124875000I2600787J25857826D01*
G01*
X52239242Y-118961485D02*
G75*
G02X48913244Y-115176665I17760758J18961485D01*
G01*
X81690381Y-109751666D02*
X91086755Y-115176665D01*
X84290381Y-94751666D02*
X93683240Y-89328251D01*
X72600000Y-85000000D02*
X72600000Y-74150002D01*
X48913245Y-84823335D02*
G75*
G02X52264186Y-81015183I21086755J-15176665D01*
G01*
X52269834Y-118982611D02*
X52239242Y-118961485D01*
X72600000Y-74150002D02*
G75*
G02X77573427Y-75147926I-2600000J-25849998D01*
G01*
X77578228Y-124846674D02*
G75*
G02X87725000Y-118984818I7421772J-1134088D01*
G01*
X93683240Y-89328251D02*
G75*
G02X95300000Y-94110000I-23683240J-10671749D01*
G01*
X84290381Y-105248334D02*
X93686757Y-110673334D01*
X58309619Y-90248334D02*
G75*
G02X55709619Y-94751666I-1300000J-2251666D01*
G01*
X72600000Y-85000000D02*
G75*
G02X67400000Y-85000000I-2600000J0D01*
G01*
X55709619Y-105248334D02*
G75*
G02X58309619Y-109751666I1300000J-2251666D01*
G01*
X87740452Y-81019516D02*
G75*
G02X91086756Y-84823335I-17740452J-18980484D01*
G01*
X52269834Y-118982611D02*
G75*
G02X62426573Y-124852075I2730166J-6998151D01*
G01*
X44698455Y-94099640D02*
G75*
G02X46313245Y-89326666I25301545J-5900360D01*
G01*
X77552153Y-124858548D02*
G75*
G02X72599999Y-125849999I-7552153J24858548D01*
G01*
X81690381Y-90248334D02*
X91086757Y-84823334D01*
M02*
